<svg id="f16c7395-8202-4d39-b51e-df2f4ce50f64" data-name="Layer 1" xmlns="http://www.w3.org/2000/svg" viewBox="0 0 188.9 23.81"><path d="M42.33,28.13V6.88h3l6.81,10.75A59.47,59.47,0,0,1,56,24.54l.06,0c-.25-2.84-.32-5.43-.32-8.74V6.88h2.59V28.13H55.51L48.76,17.35a69.13,69.13,0,0,1-4-7.1l-.09,0c.16,2.67.22,5.23.22,8.76v9.08Z" transform="translate(-5.55 -5.45)" style="fill:#7a977c"/><path d="M71.43,28.13l-.22-1.92h-.1a5.68,5.68,0,0,1-4.67,2.27,4.34,4.34,0,0,1-4.66-4.38c0-3.69,3.28-5.71,9.17-5.68V18.1c0-1.26-.34-3.53-3.47-3.53a7.56,7.56,0,0,0-4,1.14l-.63-1.83a9.46,9.46,0,0,1,5-1.36c4.67,0,5.81,3.19,5.81,6.25v5.7A21.4,21.4,0,0,0,74,28.13ZM71,20.34c-3-.06-6.47.48-6.47,3.44a2.46,2.46,0,0,0,2.62,2.65,3.79,3.79,0,0,0,3.69-2.56A3,3,0,0,0,71,23Z" transform="translate(-5.55 -5.45)" style="fill:#7a977c"/><path d="M81.39,8.49v4.38h4V15h-4v8.23c0,1.89.54,3,2.08,3A6.38,6.38,0,0,0,85.08,26l.12,2.08a6.73,6.73,0,0,1-2.45.38,3.83,3.83,0,0,1-3-1.17c-.79-.82-1.07-2.18-1.07-4V15H76.31V12.87h2.37V9.21Z" transform="translate(-5.55 -5.45)" style="fill:#7a977c"/><path d="M101.25,24c0,1.58,0,3,.13,4.16H98.92l-.16-2.49H98.7a5.75,5.75,0,0,1-5,2.84c-2.39,0-5.26-1.33-5.26-6.69V12.87h2.77v8.45c0,2.9.89,4.86,3.41,4.86a4,4,0,0,0,3.66-2.53,4.22,4.22,0,0,0,.25-1.42V12.87h2.77Z" transform="translate(-5.55 -5.45)" style="fill:#7a977c"/><path d="M105.85,17.63c0-1.8,0-3.34-.12-4.76h2.43l.09,3h.13a4.58,4.58,0,0,1,4.22-3.35,3.1,3.1,0,0,1,.79.1v2.62a3.79,3.79,0,0,0-1-.1c-2,0-3.34,1.48-3.72,3.56a8.23,8.23,0,0,0-.12,1.3v8.13h-2.75Z" transform="translate(-5.55 -5.45)" style="fill:#7a977c"/><path d="M117.39,21c.07,3.75,2.46,5.29,5.24,5.29a9.89,9.89,0,0,0,4.22-.79l.48,2a12.39,12.39,0,0,1-5.08.95c-4.7,0-7.5-3.09-7.5-7.7s2.71-8.23,7.15-8.23c5,0,6.31,4.39,6.31,7.19a9,9,0,0,1-.1,1.3Zm8.14-2c0-1.77-.73-4.51-3.85-4.51-2.8,0-4,2.59-4.25,4.51Z" transform="translate(-5.55 -5.45)" style="fill:#7a977c"/><path d="M134.36,7.13a31.73,31.73,0,0,1,5.26-.41c2.71,0,4.7.63,6,1.77a5.69,5.69,0,0,1,1.86,4.44,6.25,6.25,0,0,1-1.64,4.54,8.78,8.78,0,0,1-6.49,2.34,9.34,9.34,0,0,1-2.21-.19v8.51h-2.74Zm2.74,10.25a9.06,9.06,0,0,0,2.27.22c3.31,0,5.33-1.61,5.33-4.54s-2-4.16-5-4.16a11.27,11.27,0,0,0-2.58.22Z" transform="translate(-5.55 -5.45)" style="fill:#7a977c"/><path d="M151.79,21c.06,3.75,2.46,5.29,5.24,5.29a9.89,9.89,0,0,0,4.22-.79l.47,2a12.34,12.34,0,0,1-5.07.95c-4.7,0-7.51-3.09-7.51-7.7s2.71-8.23,7.16-8.23c5,0,6.31,4.39,6.31,7.19a10.76,10.76,0,0,1-.1,1.3Zm8.14-2c0-1.77-.73-4.51-3.85-4.51-2.81,0-4,2.59-4.26,4.51Z" transform="translate(-5.55 -5.45)" style="fill:#7a977c"/><path d="M169.38,8.49v4.38h4V15h-4v8.23c0,1.89.54,3,2.08,3a6.32,6.32,0,0,0,1.61-.19l.13,2.08a6.83,6.83,0,0,1-2.46.38,3.86,3.86,0,0,1-3-1.17c-.78-.82-1.07-2.18-1.07-4V15h-2.36V12.87h2.36V9.21Z" transform="translate(-5.55 -5.45)" style="fill:#7a977c"/><path d="M184.93,28.13l-.22-1.92h-.1A5.67,5.67,0,0,1,180,28.48a4.35,4.35,0,0,1-4.67-4.38c0-3.69,3.28-5.71,9.17-5.68V18.1c0-1.26-.34-3.53-3.46-3.53a7.59,7.59,0,0,0-4,1.14l-.63-1.83a9.47,9.47,0,0,1,5-1.36c4.66,0,5.8,3.19,5.8,6.25v5.7a21.4,21.4,0,0,0,.25,3.66Zm-.41-7.79c-3-.06-6.47.48-6.47,3.44a2.46,2.46,0,0,0,2.62,2.65,3.79,3.79,0,0,0,3.69-2.56,3,3,0,0,0,.16-.88Z" transform="translate(-5.55 -5.45)" style="fill:#7a977c"/><path d="M191.67,5.74h2.78V28.13h-2.78Z" transform="translate(-5.55 -5.45)" style="fill:#7a977c"/><path d="M36.53,12.28a9.87,9.87,0,0,0-6.68,2.59,14.9,14.9,0,0,1,1,4.64L34.05,16a.24.24,0,0,1,.09-.08l2.18-2.41a.36.36,0,0,1,.53,0,.38.38,0,0,1,0,.53l-1.31,1.44L37,15.05a.38.38,0,0,1,.47.25.37.37,0,0,1-.25.47l-2.6.81L33,18.29l2.15-.22a.38.38,0,1,1,.06.75l-2.94.29h0l-.83.92a7.08,7.08,0,0,1,3.18.93,9.85,9.85,0,0,0,3.26-7.32V12.28Z" transform="translate(-5.55 -5.45)" style="fill:#79967c"/><path d="M33.89,21.55h0l.08,0A.18.18,0,0,1,33.89,21.55Z" transform="translate(-5.55 -5.45)" style="fill:#79967c"/><path d="M37.17,25.46a9.13,9.13,0,0,1-3.69.78,9.24,9.24,0,0,1-4.14-1,10.37,10.37,0,0,0,1-2,.43.43,0,0,1,0-.14l.2.08h0l.57.23.82,1.53a.37.37,0,0,0,.33.2.34.34,0,0,0,.17-.05.37.37,0,0,0,.16-.51l-.38-.71,3.57,1.46a.35.35,0,0,0,.14,0,.38.38,0,0,0,.15-.73l-4.44-1.81-.06,0a.31.31,0,0,0-.1-.05l-.86-.35a.08.08,0,0,0-.07,0,10.93,10.93,0,0,0,.29-1.45,5.38,5.38,0,0,1,3.05.62l.08,0h0A9.15,9.15,0,0,1,37.17,25.46Z" transform="translate(-5.55 -5.45)" style="fill:#79967c"/><path d="M34,21.6l-.08,0h0A.18.18,0,0,0,34,21.6Z" transform="translate(-5.55 -5.45)" style="fill:#cfc9ac"/><path d="M28.62,24.79l0,.05a8.26,8.26,0,0,1-.74.86c-4.66,4.91-21.4,6.29-22.27-6S20.8,2.93,23.23,17.33,10.5,24.62,11.3,19.44c.66-4.21,6.85-10.28,8-2,.2,1.41-3.52-3-4-1.84-.12.25,1.58,1.23,1.15,2.05-.56,1.07-2.61,1.93-.64,4C17,23,16.55,20,18.27,20.79s3-.92,2.71-3.58c-.36-3.19-1.53-7.94-5.59-5.62-3.72,2.12-3.15,5.55-5.59,5.51s-3.19,5.48.35,7.33,6.49,5.16,11.41,3.24,2-3.54,3.67-10.24c1.46-6-4.12-5.47-5.93-8.92a2.52,2.52,0,0,0-2.41-1.37,17.34,17.34,0,0,0-9.62,3.6c-3.4,3,2.94-3.79,5.5-4.77C15.11,5.08,21.17,5.28,23,7A29.57,29.57,0,0,1,29,15.16l.14.39,0,0C30.5,18.58,30.79,21.86,28.62,24.79Z" transform="translate(-5.55 -5.45)" style="fill:#cfc9ac"/><path d="M29.19,15.53l0,0L29,15.16Z" transform="translate(-5.55 -5.45)" style="fill:#cfc9ac"/><path d="M29.19,15.53l0,0L29,15.16Z" transform="translate(-5.55 -5.45)" style="fill:#cfc9ac"/></svg>