<svg id="ac484406-1fd0-422a-ba7a-0ee4d88373a0" data-name="Layer 1" xmlns="http://www.w3.org/2000/svg" viewBox="0 0 174 79.54"><path d="M13,83.54V59.23h3.43l7.79,12.3a68.57,68.57,0,0,1,4.36,7.9l.07,0c-.28-3.24-.36-6.2-.36-10V59.23h3V83.54H28.08L20.36,71.21a76.88,76.88,0,0,1-4.55-8.12l-.1,0c.18,3.06.25,6,.25,10V83.54Z" transform="translate(-13 -4.4)" style="fill:#79967c"/><path d="M46.29,83.54,46,81.34h-.11a6.52,6.52,0,0,1-5.34,2.6,5,5,0,0,1-5.34-5c0-4.22,3.75-6.53,10.5-6.5v-.36c0-1.44-.4-4-4-4a8.71,8.71,0,0,0-4.54,1.3l-.73-2.09a10.85,10.85,0,0,1,5.74-1.55c5.34,0,6.63,3.64,6.63,7.14v6.53a25.23,25.23,0,0,0,.29,4.18Zm-.47-8.91c-3.46-.07-7.39.54-7.39,3.93a2.81,2.81,0,0,0,3,3,4.35,4.35,0,0,0,4.22-2.92,3.21,3.21,0,0,0,.18-1Z" transform="translate(-13 -4.4)" style="fill:#79967c"/><path d="M57.68,61.07v5h4.55V68.5H57.68v9.42c0,2.16.62,3.39,2.38,3.39a6.91,6.91,0,0,0,1.84-.22l.15,2.38a7.89,7.89,0,0,1-2.82.43,4.39,4.39,0,0,1-3.42-1.33c-.9-.94-1.23-2.49-1.23-4.55V68.5h-2.7V66.09h2.7V61.9Z" transform="translate(-13 -4.4)" style="fill:#79967c"/><path d="M80.4,78.78c0,1.8,0,3.39.15,4.76H77.73l-.18-2.85h-.07a6.57,6.57,0,0,1-5.77,3.25c-2.74,0-6-1.52-6-7.65V66.09h3.17v9.66c0,3.32,1,5.56,3.9,5.56a4.59,4.59,0,0,0,4.18-2.89,4.67,4.67,0,0,0,.29-1.62V66.09H80.4Z" transform="translate(-13 -4.4)" style="fill:#79967c"/><path d="M85.67,71.53c0-2,0-3.82-.15-5.44H88.3l.11,3.42h.14a5.24,5.24,0,0,1,4.83-3.82,3.6,3.6,0,0,1,.91.11v3a5,5,0,0,0-1.09-.11c-2.23,0-3.82,1.7-4.25,4.08a9.13,9.13,0,0,0-.15,1.48v9.3H85.67Z" transform="translate(-13 -4.4)" style="fill:#79967c"/><path d="M98.86,75.39c.08,4.29,2.82,6.06,6,6.06a11.55,11.55,0,0,0,4.83-.9l.54,2.27a14,14,0,0,1-5.8,1.08c-5.38,0-8.58-3.53-8.58-8.8s3.1-9.41,8.18-9.41c5.7,0,7.21,5,7.21,8.22a13.68,13.68,0,0,1-.1,1.48Zm9.31-2.27c0-2-.83-5.16-4.4-5.16-3.21,0-4.62,3-4.87,5.16Z" transform="translate(-13 -4.4)" style="fill:#79967c"/><path d="M118.26,59.52a36.71,36.71,0,0,1,6-.47c3.1,0,5.37.73,6.81,2a6.53,6.53,0,0,1,2.13,5.09,7.17,7.17,0,0,1-1.87,5.19C129.7,73.12,127,74,123.93,74a10.83,10.83,0,0,1-2.53-.22v9.74h-3.14Zm3.14,11.72a10.53,10.53,0,0,0,2.6.26c3.79,0,6.09-1.84,6.09-5.2,0-3.21-2.27-4.76-5.73-4.76a13.5,13.5,0,0,0-3,.25Z" transform="translate(-13 -4.4)" style="fill:#79967c"/><path d="M138.21,75.39c.07,4.29,2.81,6.06,6,6.06a11.57,11.57,0,0,0,4.84-.9l.54,2.27a14.08,14.08,0,0,1-5.81,1.08c-5.37,0-8.58-3.53-8.58-8.8s3.1-9.41,8.18-9.41c5.7,0,7.22,5,7.22,8.22a13.14,13.14,0,0,1-.11,1.48Zm9.3-2.27c0-2-.83-5.16-4.4-5.16-3.21,0-4.61,3-4.87,5.16Z" transform="translate(-13 -4.4)" style="fill:#79967c"/><path d="M158.33,61.07v5h4.54V68.5h-4.54v9.42c0,2.16.61,3.39,2.38,3.39a7,7,0,0,0,1.84-.22l.14,2.38a7.79,7.79,0,0,1-2.81.43,4.43,4.43,0,0,1-3.43-1.33c-.9-.94-1.22-2.49-1.22-4.55V68.5h-2.71V66.09h2.71V61.9Z" transform="translate(-13 -4.4)" style="fill:#79967c"/><path d="M176.11,83.54l-.25-2.2h-.11a6.52,6.52,0,0,1-5.34,2.6,5,5,0,0,1-5.34-5c0-4.22,3.75-6.53,10.5-6.5v-.36c0-1.44-.4-4-4-4a8.71,8.71,0,0,0-4.54,1.3l-.73-2.09a10.85,10.85,0,0,1,5.74-1.55c5.34,0,6.63,3.64,6.63,7.14v6.53a25.23,25.23,0,0,0,.29,4.18Zm-.47-8.91c-3.46-.07-7.39.54-7.39,3.93a2.81,2.81,0,0,0,3,3,4.35,4.35,0,0,0,4.22-2.92,3.21,3.21,0,0,0,.18-1Z" transform="translate(-13 -4.4)" style="fill:#79967c"/><path d="M183.82,57.94H187v25.6h-3.18Z" transform="translate(-13 -4.4)" style="fill:#79967c"/><path d="M138.87,19.59A21.88,21.88,0,0,0,124,25.35a33.27,33.27,0,0,1,2.32,10.31l7-7.74a.68.68,0,0,1,.19-.19l4.84-5.36a.84.84,0,0,1,1.24,1.13l-2.91,3.2,3.08-.95a.85.85,0,0,1,1,.55.83.83,0,0,1-.55,1.05l-5.8,1.79-3.43,3.8,4.77-.48a.82.82,0,0,1,.91.74.85.85,0,0,1-.76.92l-6.54.65-.06,0-1.85,2a15.89,15.89,0,0,1,7.08,2.08,22,22,0,0,0,7.26-16.29v-3Z" transform="translate(-13 -4.4)" style="fill:#79967c"/><path d="M133,40.2a0,0,0,0,1,0,0,.75.75,0,0,1,.17.1Z" transform="translate(-13 -4.4)" style="fill:#79967c"/><path d="M140.3,48.9a20.38,20.38,0,0,1-17.41-.46A21.69,21.69,0,0,0,125,44c0-.1.06-.21.09-.33l.44.2h0l1.26.51,1.81,3.39a.86.86,0,0,0,.74.44.77.77,0,0,0,.39-.11.81.81,0,0,0,.34-1.13l-.84-1.58,7.93,3.26a1,1,0,0,0,.33.06.89.89,0,0,0,.78-.52.86.86,0,0,0-.46-1.1L128,43l-.15-.05a.68.68,0,0,0-.21-.1l-1.91-.78a.18.18,0,0,0-.15,0,23.57,23.57,0,0,0,.63-3.24A12.15,12.15,0,0,1,133,40.22a.75.75,0,0,1,.17.1h0A20.23,20.23,0,0,1,140.3,48.9Z" transform="translate(-13 -4.4)" style="fill:#79967c"/><path d="M133.15,40.32a.75.75,0,0,0-.17-.1,0,0,0,0,0,0,0Z" transform="translate(-13 -4.4)" style="fill:#cfc9ac"/><path d="M121.27,47.41a.44.44,0,0,1-.06.1,21.75,21.75,0,0,1-1.64,1.92C109.2,60.34,72,63.41,70.05,36.1S103.9-1.21,109.3,30.82,81,47,82.77,35.51C84.22,26.15,98,12.65,100.6,31.15c.44,3.12-7.84-6.56-8.92-4.1-.27.57,3.51,2.74,2.55,4.57-1.24,2.37-5.79,4.29-1.41,9,2.52,2.71,1.62-4,5.45-2.11,3.65,1.77,6.66-2,6-8-.78-7.08-3.39-17.66-12.43-12.49-8.26,4.71-7,12.33-12.41,12.26s-7.12,12.18.78,16.3,14.41,11.46,25.36,7.19,4.52-7.86,8.16-22.77c3.26-13.31-9.15-12.16-13.18-19.83a5.62,5.62,0,0,0-5.36-3c-9.82.72-17.67,4.73-21.41,8C66.24,22.77,80.33,7.73,86,5.56c5.21-2,18.69-1.55,22.66,2.36C113,12.13,118.83,18.71,122.19,26c.11.28.21.57.32.86l0,0C125.47,33.59,126.11,40.89,121.27,47.41Z" transform="translate(-13 -4.4)" style="fill:#cfc9ac"/><path d="M122.55,26.82l0,0c-.11-.29-.21-.58-.32-.86C122.32,26.26,122.43,26.53,122.55,26.82Z" transform="translate(-13 -4.4)" style="fill:#cfc9ac"/><path d="M122.55,26.82l0,0c-.11-.29-.21-.58-.32-.86C122.32,26.26,122.43,26.53,122.55,26.82Z" transform="translate(-13 -4.4)" style="fill:#cfc9ac"/></svg>